<svg width="87" height="33" viewBox="0 0 87 33" fill="none" xmlns="http://www.w3.org/2000/svg">
<path d="M86.6468 31.3756C86.6492 32.1457 86.0268 32.7717 85.2567 32.7737L5.51265 32.9856C4.07169 32.9894 3.57135 31.0717 4.83076 30.3721L10.6812 27.1218C10.9738 26.9592 11.1981 26.6968 11.3132 26.3825L15.0342 16.2163C15.155 15.8864 15.1467 15.523 15.0111 15.1988L11.2697 6.25555C11.1409 5.94771 10.906 5.6962 10.6077 5.54667L5.23825 2.85541C3.92504 2.19721 4.38973 0.218245 5.8584 0.214343L85.1561 0.0036708C85.9262 0.00162474 86.5525 0.624291 86.5548 1.39444L86.6468 31.3756Z" fill="#54ADED" fill-opacity="0.77"/>
<path d="M25.5913 12.1558C25.9323 12.0952 26.3151 12.0421 26.7395 11.9966C27.1715 11.9436 27.5883 11.9171 27.99 11.9171C28.6342 11.9171 29.1609 11.9853 29.5702 12.1217C29.9871 12.2581 30.3129 12.4362 30.5479 12.656C30.7828 12.8682 30.942 13.1107 31.0254 13.3836C31.1163 13.6488 31.1618 13.9141 31.1618 14.1794C31.1618 14.6568 31.0519 15.0737 30.8321 15.4299C30.6199 15.7785 30.3167 16.0552 29.9226 16.2598C30.1576 16.3735 30.3508 16.5061 30.5024 16.6577C30.6616 16.8017 30.7866 16.9798 30.8776 17.192C30.9685 17.4042 31.0292 17.6581 31.0595 17.9537C31.0974 18.2417 31.1163 18.5789 31.1163 18.9655C31.1163 19.2762 31.1049 19.6211 31.0822 20L29.502 20.1364C29.5247 19.8863 29.5437 19.6476 29.5588 19.4202C29.574 19.1928 29.5816 18.9768 29.5816 18.7722C29.5816 18.4387 29.5551 18.1469 29.502 17.8968C29.4489 17.6467 29.3542 17.4383 29.2178 17.2716C29.0814 17.0973 28.8957 16.9684 28.6607 16.8851C28.4334 16.8017 28.1378 16.76 27.774 16.76C27.6906 16.76 27.5921 16.7638 27.4784 16.7714C27.3647 16.7714 27.2473 16.7789 27.126 16.7941C27.126 17.4232 27.126 17.9916 27.126 18.4994C27.1336 19.0072 27.1449 19.5074 27.1601 20H25.5572C25.5723 19.6362 25.5837 19.3179 25.5913 19.0451C25.6064 18.7646 25.6178 18.4766 25.6254 18.1811C25.6329 17.8779 25.6367 17.5406 25.6367 17.1693C25.6443 16.7979 25.6481 16.3356 25.6481 15.7823C25.6481 15.1457 25.6443 14.5356 25.6367 13.952C25.6292 13.3684 25.614 12.7697 25.5913 12.1558ZM28.1378 12.9288C27.9862 12.9288 27.8271 12.944 27.6603 12.9743C27.4936 12.9971 27.3231 13.0312 27.1487 13.0766C27.1336 13.3949 27.126 13.7549 27.126 14.1566C27.126 14.5507 27.126 15.0282 27.126 15.5891V15.7368C27.3382 15.7823 27.5845 15.8051 27.8649 15.8051C28.4334 15.8051 28.8729 15.6838 29.1837 15.4413C29.502 15.1912 29.6612 14.8274 29.6612 14.3499C29.6612 13.9103 29.5247 13.5655 29.2519 13.3154C28.9866 13.0577 28.6153 12.9288 28.1378 12.9288ZM37.0427 16.4872H34.0869C34.0869 16.9646 34.0869 17.4004 34.0869 17.7945C34.0869 18.1811 34.0907 18.5448 34.0983 18.8859H37.6111V20H32.5181C32.5257 19.6362 32.5333 19.3179 32.5408 19.0451C32.556 18.7646 32.5674 18.4766 32.5749 18.1811C32.5825 17.8779 32.5901 17.5331 32.5977 17.1465C32.6053 16.76 32.609 16.2749 32.609 15.6914C32.609 15.1078 32.6053 14.5091 32.5977 13.8952C32.5901 13.2737 32.5749 12.656 32.5522 12.0421H37.3951V13.1562H34.1097C34.0945 13.4518 34.0869 13.7891 34.0869 14.168C34.0869 14.5394 34.0869 14.9638 34.0869 15.4413H37.0427V16.4872ZM44.8861 16.3394C44.8633 16.4455 44.8444 16.5554 44.8292 16.6691C44.8216 16.7827 44.8141 16.9078 44.8065 17.0442C44.8065 17.1731 44.8027 17.3208 44.7951 17.4876C44.7951 17.6543 44.7951 17.8438 44.7951 18.056C44.7951 18.4956 44.7951 18.8594 44.7951 19.1474C44.8027 19.4354 44.8141 19.7196 44.8292 20L44.3063 20.1364L43.897 19.4543C43.5938 19.6514 43.2263 19.8143 42.7943 19.9432C42.3623 20.072 41.9265 20.1364 41.4869 20.1364C41.0852 20.1364 40.6949 20.0872 40.3159 19.9886C39.9446 19.8901 39.6149 19.7044 39.3269 19.4316C39.0389 19.1512 38.8077 18.7646 38.6334 18.272C38.4591 17.7794 38.3719 17.1389 38.3719 16.3507C38.3719 14.8501 38.6865 13.736 39.3155 13.0084C39.9446 12.2733 40.8465 11.9057 42.0212 11.9057C42.2031 11.9057 42.3698 11.9133 42.5214 11.9284C42.673 11.9436 42.8132 11.9587 42.9421 11.9739C43.0709 11.9891 43.1959 12.0042 43.3172 12.0194C43.4385 12.0345 43.5597 12.0421 43.681 12.0421C43.8023 12.0421 43.9273 12.0345 44.0562 12.0194C44.185 11.9966 44.3252 11.9625 44.4768 11.9171L44.6018 14.5318L43.3399 14.6796C43.3475 14.6265 43.3513 14.5773 43.3513 14.5318C43.3513 14.4787 43.3513 14.4257 43.3513 14.3726C43.3513 14.1756 43.3324 13.9861 43.2945 13.8042C43.2566 13.6223 43.1884 13.4632 43.0898 13.3267C42.9913 13.1827 42.8549 13.0691 42.6806 12.9857C42.5063 12.9023 42.2865 12.8606 42.0212 12.8606C40.5812 12.8606 39.8612 13.9179 39.8612 16.0324C39.8612 16.5402 39.9029 16.9722 39.9863 17.3284C40.0772 17.6846 40.2061 17.9764 40.3728 18.2038C40.5471 18.4312 40.7593 18.5979 41.0094 18.704C41.2671 18.8101 41.5589 18.8632 41.8848 18.8632C42.1576 18.8632 42.4153 18.8253 42.6578 18.7495C42.9079 18.6737 43.1543 18.5714 43.3968 18.4425V17.3057L42.0098 17.3739L41.9075 16.3394H44.8861ZM47.8444 12.0421C47.8217 12.2846 47.8027 12.5347 47.7876 12.7924C47.78 13.0425 47.7724 13.3229 47.7648 13.6337C47.7648 13.9368 47.761 14.2779 47.7535 14.6568C47.7535 15.0358 47.7535 15.4678 47.7535 15.9528C47.7535 16.4076 47.7535 16.8206 47.7535 17.192C47.7535 17.5558 47.7535 17.8968 47.7535 18.2152C47.761 18.5335 47.7648 18.8366 47.7648 19.1246C47.7724 19.4126 47.78 19.7044 47.7876 20H46.1846C46.1922 19.6362 46.1998 19.3179 46.2074 19.0451C46.2225 18.7646 46.2339 18.4766 46.2415 18.1811C46.249 17.8779 46.2566 17.5331 46.2642 17.1465C46.2718 16.76 46.2756 16.2749 46.2756 15.6914C46.2756 15.1078 46.2718 14.528 46.2642 13.952C46.2566 13.3684 46.2415 12.7697 46.2187 12.1558L47.8444 12.0421ZM51.7223 18.8404C52.1998 18.8404 52.5522 18.7571 52.7796 18.5903C53.0145 18.4236 53.132 18.1811 53.132 17.8627C53.132 17.6657 53.0903 17.4989 53.0069 17.3625C52.9236 17.2261 52.8099 17.1086 52.6659 17.0101C52.5294 16.9116 52.3665 16.8282 52.177 16.76C51.9951 16.6842 51.8057 16.6122 51.6086 16.544C51.2448 16.4227 50.9151 16.3015 50.6196 16.1802C50.3316 16.0589 50.0814 15.9187 49.8692 15.7596C49.6646 15.5928 49.5054 15.392 49.3918 15.1571C49.2781 14.9145 49.2212 14.6152 49.2212 14.2589C49.2212 13.7663 49.3198 13.3684 49.5168 13.0653C49.7214 12.7545 49.9753 12.5158 50.2785 12.3491C50.5817 12.1747 50.9113 12.0611 51.2676 12.008C51.6313 11.9474 51.9686 11.9171 52.2793 11.9171C52.6734 11.9171 53.0448 11.9474 53.3934 12.008C53.7497 12.0686 54.0604 12.1293 54.3257 12.1899V13.5086C53.9619 13.4025 53.5867 13.3154 53.2002 13.2472C52.8137 13.1789 52.4612 13.1448 52.1429 13.1448C51.5972 13.1448 51.1993 13.2434 50.9492 13.4404C50.6991 13.6299 50.5741 13.8611 50.5741 14.1339C50.5741 14.3385 50.6309 14.5091 50.7446 14.6455C50.8659 14.7819 51.0099 14.8994 51.1766 14.9979C51.3509 15.0964 51.5328 15.176 51.7223 15.2366C51.9193 15.2897 52.0974 15.3389 52.2566 15.3844C52.5294 15.4602 52.8023 15.5549 53.0751 15.6686C53.348 15.7747 53.5943 15.9187 53.8141 16.1006C54.0414 16.2825 54.2233 16.5099 54.3598 16.7827C54.4962 17.048 54.5644 17.3777 54.5644 17.7718C54.5644 18.1659 54.4924 18.5107 54.3484 18.8063C54.212 19.1019 54.0149 19.3482 53.7572 19.5453C53.5071 19.7423 53.2078 19.8901 52.8591 19.9886C52.5105 20.0872 52.1278 20.1364 51.7109 20.1364C51.3471 20.1364 50.9379 20.0985 50.4831 20.0227C50.036 19.9469 49.5964 19.8295 49.1644 19.6703L49.1189 18.272C49.2553 18.3402 49.4259 18.4084 49.6305 18.4766C49.8351 18.5373 50.0549 18.5979 50.2899 18.6585C50.5324 18.7116 50.7749 18.7571 51.0174 18.7949C51.2676 18.8253 51.5025 18.8404 51.7223 18.8404ZM61.1307 13.1562H58.8798C58.8646 13.5124 58.857 13.9141 58.857 14.3613C58.857 14.8008 58.857 15.3314 58.857 15.9528C58.857 16.4076 58.857 16.8206 58.857 17.192C58.857 17.5558 58.857 17.8968 58.857 18.2152C58.8646 18.5335 58.8684 18.8366 58.8684 19.1246C58.876 19.4126 58.8836 19.7044 58.8911 20H57.2882C57.2958 19.6362 57.3034 19.3179 57.3109 19.0451C57.3261 18.7646 57.3375 18.4766 57.345 18.1811C57.3526 17.8779 57.3602 17.5331 57.3678 17.1465C57.3754 16.76 57.3791 16.2749 57.3791 15.6914C57.3791 15.2669 57.3791 14.8463 57.3791 14.4295C57.3791 14.0126 57.3716 13.5882 57.3564 13.1562H55.1055V12.0421H61.1307V13.1562ZM66.574 16.4872H63.6182C63.6182 16.9646 63.6182 17.4004 63.6182 17.7945C63.6182 18.1811 63.622 18.5448 63.6296 18.8859H67.1424V20H62.0493C62.0569 19.6362 62.0645 19.3179 62.0721 19.0451C62.0872 18.7646 62.0986 18.4766 62.1062 18.1811C62.1138 17.8779 62.1213 17.5331 62.1289 17.1465C62.1365 16.76 62.1403 16.2749 62.1403 15.6914C62.1403 15.1078 62.1365 14.5091 62.1289 13.8952C62.1213 13.2737 62.1062 12.656 62.0835 12.0421H66.9264V13.1562H63.6409C63.6258 13.4518 63.6182 13.7891 63.6182 14.168C63.6182 14.5394 63.6182 14.9638 63.6182 15.4413H66.574V16.4872ZM68.345 12.1558C68.686 12.0952 69.0688 12.0421 69.4932 11.9966C69.9252 11.9436 70.342 11.9171 70.7437 11.9171C71.3879 11.9171 71.9147 11.9853 72.3239 12.1217C72.7408 12.2581 73.0667 12.4362 73.3016 12.656C73.5365 12.8682 73.6957 13.1107 73.7791 13.3836C73.87 13.6488 73.9155 13.9141 73.9155 14.1794C73.9155 14.6568 73.8056 15.0737 73.5858 15.4299C73.3736 15.7785 73.0704 16.0552 72.6763 16.2598C72.9113 16.3735 73.1045 16.5061 73.2561 16.6577C73.4153 16.8017 73.5403 16.9798 73.6313 17.192C73.7222 17.4042 73.7829 17.6581 73.8132 17.9537C73.8511 18.2417 73.87 18.5789 73.87 18.9655C73.87 19.2762 73.8587 19.6211 73.8359 20L72.2557 20.1364C72.2784 19.8863 72.2974 19.6476 72.3125 19.4202C72.3277 19.1928 72.3353 18.9768 72.3353 18.7722C72.3353 18.4387 72.3088 18.1469 72.2557 17.8968C72.2027 17.6467 72.1079 17.4383 71.9715 17.2716C71.8351 17.0973 71.6494 16.9684 71.4144 16.8851C71.1871 16.8017 70.8915 16.76 70.5277 16.76C70.4443 16.76 70.3458 16.7638 70.2321 16.7714C70.1184 16.7714 70.001 16.7789 69.8797 16.7941C69.8797 17.4232 69.8797 17.9916 69.8797 18.4994C69.8873 19.0072 69.8987 19.5074 69.9138 20H68.3109C68.326 19.6362 68.3374 19.3179 68.345 19.0451C68.3601 18.7646 68.3715 18.4766 68.3791 18.1811C68.3867 17.8779 68.3904 17.5406 68.3904 17.1693C68.398 16.7979 68.4018 16.3356 68.4018 15.7823C68.4018 15.1457 68.398 14.5356 68.3904 13.952C68.3829 13.3684 68.3677 12.7697 68.345 12.1558ZM70.8915 12.9288C70.7399 12.9288 70.5808 12.944 70.414 12.9743C70.2473 12.9971 70.0768 13.0312 69.9024 13.0766C69.8873 13.3949 69.8797 13.7549 69.8797 14.1566C69.8797 14.5507 69.8797 15.0282 69.8797 15.5891V15.7368C70.0919 15.7823 70.3382 15.8051 70.6187 15.8051C71.1871 15.8051 71.6267 15.6838 71.9374 15.4413C72.2557 15.1912 72.4149 14.8274 72.4149 14.3499C72.4149 13.9103 72.2784 13.5655 72.0056 13.3154C71.7403 13.0577 71.369 12.9288 70.8915 12.9288Z" fill="white"/>
</svg>
