<svg width="87" height="33" viewBox="0 0 87 33" fill="none" xmlns="http://www.w3.org/2000/svg">
<path d="M0 1.39448C0 0.624328 0.624328 0 1.39448 0H81.1388C82.5798 0 83.0742 1.919 81.8127 2.61533L75.9522 5.85005C75.6592 6.01182 75.4341 6.27362 75.318 6.58764L71.5658 16.7439C71.4441 17.0735 71.4512 17.4369 71.5858 17.7615L75.2998 26.7146C75.4276 27.0228 75.6617 27.2749 75.9596 27.4253L81.3207 30.1308C82.6319 30.7925 82.1612 32.7702 80.6925 32.7702H1.39448C0.624327 32.7702 0 32.1459 0 31.3757V1.39448Z" fill="#54ADED" fill-opacity="0.77"/>
<path d="M14.9032 18.8404C15.3807 18.8404 15.7331 18.7571 15.9605 18.5903C16.1954 18.4236 16.3129 18.1811 16.3129 17.8627C16.3129 17.6657 16.2712 17.4989 16.1879 17.3625C16.1045 17.2261 15.9908 17.1086 15.8468 17.0101C15.7104 16.9116 15.5474 16.8282 15.358 16.76C15.1761 16.6842 14.9866 16.6122 14.7895 16.544C14.4258 16.4227 14.0961 16.3015 13.8005 16.1802C13.5125 16.0589 13.2624 15.9187 13.0502 15.7596C12.8455 15.5928 12.6864 15.392 12.5727 15.1571C12.459 14.9145 12.4022 14.6152 12.4022 14.2589C12.4022 13.7663 12.5007 13.3684 12.6978 13.0653C12.9024 12.7545 13.1563 12.5158 13.4594 12.3491C13.7626 12.1747 14.0923 12.0611 14.4485 12.008C14.8123 11.9474 15.1495 11.9171 15.4603 11.9171C15.8544 11.9171 16.2258 11.9474 16.5744 12.008C16.9306 12.0686 17.2413 12.1293 17.5066 12.1899V13.5086C17.1428 13.4025 16.7677 13.3154 16.3811 13.2472C15.9946 13.1789 15.6422 13.1448 15.3239 13.1448C14.7782 13.1448 14.3803 13.2434 14.1302 13.4404C13.8801 13.6299 13.755 13.8611 13.755 14.1339C13.755 14.3385 13.8119 14.5091 13.9255 14.6455C14.0468 14.7819 14.1908 14.8994 14.3575 14.9979C14.5319 15.0964 14.7138 15.176 14.9032 15.2366C15.1003 15.2897 15.2784 15.3389 15.4375 15.3844C15.7104 15.4602 15.9832 15.5549 16.2561 15.6686C16.5289 15.7747 16.7752 15.9187 16.995 16.1006C17.2224 16.2825 17.4043 16.5099 17.5407 16.7827C17.6771 17.048 17.7453 17.3777 17.7453 17.7718C17.7453 18.1659 17.6733 18.5107 17.5293 18.8063C17.3929 19.1019 17.1959 19.3482 16.9382 19.5453C16.6881 19.7423 16.3887 19.8901 16.0401 19.9886C15.6914 20.0872 15.3087 20.1364 14.8919 20.1364C14.5281 20.1364 14.1188 20.0985 13.6641 20.0227C13.2169 19.9469 12.7773 19.8295 12.3453 19.6703L12.2999 18.272C12.4363 18.3402 12.6068 18.4084 12.8114 18.4766C13.0161 18.5373 13.2359 18.5979 13.4708 18.6585C13.7133 18.7116 13.9559 18.7571 14.1984 18.7949C14.4485 18.8253 14.6834 18.8404 14.9032 18.8404ZM20.6397 12.0421C20.6169 12.2846 20.598 12.5347 20.5828 12.7924C20.5752 13.0425 20.5677 13.3229 20.5601 13.6337C20.5601 13.9368 20.5563 14.2779 20.5487 14.6568C20.5487 15.0358 20.5487 15.4678 20.5487 15.9528C20.5487 16.4076 20.5487 16.8206 20.5487 17.192C20.5487 17.5558 20.5487 17.8968 20.5487 18.2152C20.5563 18.5335 20.5601 18.8366 20.5601 19.1246C20.5677 19.4126 20.5752 19.7044 20.5828 20H18.9799C18.9875 19.6362 18.995 19.3179 19.0026 19.0451C19.0178 18.7646 19.0291 18.4766 19.0367 18.1811C19.0443 17.8779 19.0519 17.5331 19.0595 17.1465C19.067 16.76 19.0708 16.2749 19.0708 15.6914C19.0708 15.1078 19.067 14.528 19.0595 13.952C19.0519 13.3684 19.0367 12.7697 19.014 12.1558L20.6397 12.0421ZM28.4169 16.3394C28.3942 16.4455 28.3752 16.5554 28.3601 16.6691C28.3525 16.7827 28.3449 16.9078 28.3373 17.0442C28.3373 17.1731 28.3335 17.3208 28.326 17.4876C28.326 17.6543 28.326 17.8438 28.326 18.056C28.326 18.4956 28.326 18.8594 28.326 19.1474C28.3335 19.4354 28.3449 19.7196 28.3601 20L27.8371 20.1364L27.4279 19.4543C27.1247 19.6514 26.7571 19.8143 26.3251 19.9432C25.8931 20.072 25.4573 20.1364 25.0178 20.1364C24.6161 20.1364 24.2257 20.0872 23.8468 19.9886C23.4754 19.8901 23.1457 19.7044 22.8577 19.4316C22.5697 19.1512 22.3386 18.7646 22.1643 18.272C21.99 17.7794 21.9028 17.1389 21.9028 16.3507C21.9028 14.8501 22.2173 13.736 22.8464 13.0084C23.4754 12.2733 24.3773 11.9057 25.5521 11.9057C25.734 11.9057 25.9007 11.9133 26.0523 11.9284C26.2039 11.9436 26.3441 11.9587 26.4729 11.9739C26.6017 11.9891 26.7268 12.0042 26.8481 12.0194C26.9693 12.0345 27.0906 12.0421 27.2119 12.0421C27.3331 12.0421 27.4582 12.0345 27.587 12.0194C27.7159 11.9966 27.8561 11.9625 28.0076 11.9171L28.1327 14.5318L26.8708 14.6796C26.8784 14.6265 26.8822 14.5773 26.8822 14.5318C26.8822 14.4787 26.8822 14.4257 26.8822 14.3726C26.8822 14.1756 26.8632 13.9861 26.8253 13.8042C26.7874 13.6223 26.7192 13.4632 26.6207 13.3267C26.5222 13.1827 26.3858 13.0691 26.2114 12.9857C26.0371 12.9023 25.8173 12.8606 25.5521 12.8606C24.1121 12.8606 23.3921 13.9179 23.3921 16.0324C23.3921 16.5402 23.4337 16.9722 23.5171 17.3284C23.6081 17.6846 23.7369 17.9764 23.9036 18.2038C24.078 18.4312 24.2902 18.5979 24.5403 18.704C24.798 18.8101 25.0897 18.8632 25.4156 18.8632C25.6885 18.8632 25.9462 18.8253 26.1887 18.7495C26.4388 18.6737 26.6851 18.5714 26.9276 18.4425V17.3057L25.5407 17.3739L25.4384 16.3394H28.4169ZM36.2523 12.0421C36.2296 12.2846 36.2106 12.5347 36.1955 12.7924C36.1879 13.0425 36.1803 13.3229 36.1727 13.6337C36.1727 13.9368 36.169 14.2779 36.1614 14.6568C36.1614 15.0358 36.1614 15.4678 36.1614 15.9528C36.1614 16.4076 36.1614 16.8206 36.1614 17.192C36.1614 17.5558 36.1614 17.8968 36.1614 18.2152C36.169 18.5335 36.1727 18.8366 36.1727 19.1246C36.1803 19.4126 36.1879 19.7044 36.1955 20L33.9104 20.1364C33.4026 19.1208 32.91 18.0408 32.4325 16.8964C31.9626 15.7444 31.5458 14.5811 31.182 13.4063C31.182 13.5503 31.1782 13.7246 31.1706 13.9293C31.1706 14.1263 31.1706 14.3385 31.1706 14.5659C31.1706 14.7933 31.1706 15.0282 31.1706 15.2707C31.1706 15.5057 31.1706 15.7331 31.1706 15.9528C31.1706 16.4076 31.1744 16.8206 31.182 17.192C31.1896 17.5558 31.1972 17.8968 31.2047 18.2152C31.2123 18.5335 31.2199 18.8366 31.2275 19.1246C31.2426 19.4126 31.254 19.7044 31.2616 20H29.7155C29.7231 19.6362 29.7306 19.3179 29.7382 19.0451C29.7534 18.7646 29.7647 18.4766 29.7723 18.1811C29.7799 17.8779 29.7875 17.5331 29.7951 17.1465C29.8026 16.76 29.8064 16.2749 29.8064 15.6914C29.8064 15.1078 29.8026 14.528 29.7951 13.952C29.7875 13.3684 29.7723 12.7697 29.7496 12.1558L32.262 11.9057C32.497 12.8985 32.8153 13.9861 33.217 15.1684C33.6262 16.3507 34.1378 17.624 34.7517 18.9882C34.7669 18.6244 34.7782 18.1697 34.7858 17.624C34.7934 17.0783 34.7972 16.4341 34.7972 15.6914C34.7972 15.1078 34.782 14.528 34.7517 13.952C34.729 13.3684 34.7062 12.7697 34.6835 12.1558L36.2523 12.0421ZM41.9221 12.0421C41.8994 12.2846 41.8805 12.5347 41.8653 12.7924C41.8577 13.0425 41.8501 13.3229 41.8426 13.6337C41.8426 13.9368 41.8388 14.2779 41.8312 14.6568C41.8312 15.0358 41.8312 15.4678 41.8312 15.9528C41.8312 16.4076 41.8312 16.8206 41.8312 17.192C41.8312 17.5558 41.8312 17.8968 41.8312 18.2152C41.8388 18.5335 41.8426 18.8366 41.8426 19.1246C41.8501 19.4126 41.8577 19.7044 41.8653 20H40.2624C40.2699 19.6362 40.2775 19.3179 40.2851 19.0451C40.3003 18.7646 40.3116 18.4766 40.3192 18.1811C40.3268 17.8779 40.3344 17.5331 40.3419 17.1465C40.3495 16.76 40.3533 16.2749 40.3533 15.6914C40.3533 15.1078 40.3495 14.528 40.3419 13.952C40.3344 13.3684 40.3192 12.7697 40.2965 12.1558L41.9221 12.0421ZM50.0632 12.0421C50.0404 12.2846 50.0215 12.5347 50.0063 12.7924C49.9988 13.0425 49.9912 13.3229 49.9836 13.6337C49.9836 13.9368 49.9798 14.2779 49.9722 14.6568C49.9722 15.0358 49.9722 15.4678 49.9722 15.9528C49.9722 16.4076 49.9722 16.8206 49.9722 17.192C49.9722 17.5558 49.9722 17.8968 49.9722 18.2152C49.9798 18.5335 49.9836 18.8366 49.9836 19.1246C49.9912 19.4126 49.9988 19.7044 50.0063 20L47.7213 20.1364C47.2135 19.1208 46.7209 18.0408 46.2434 16.8964C45.7735 15.7444 45.3567 14.5811 44.9929 13.4063C44.9929 13.5503 44.9891 13.7246 44.9815 13.9293C44.9815 14.1263 44.9815 14.3385 44.9815 14.5659C44.9815 14.7933 44.9815 15.0282 44.9815 15.2707C44.9815 15.5057 44.9815 15.7331 44.9815 15.9528C44.9815 16.4076 44.9853 16.8206 44.9929 17.192C45.0004 17.5558 45.008 17.8968 45.0156 18.2152C45.0232 18.5335 45.0308 18.8366 45.0383 19.1246C45.0535 19.4126 45.0649 19.7044 45.0724 20H43.5263C43.5339 19.6362 43.5415 19.3179 43.5491 19.0451C43.5642 18.7646 43.5756 18.4766 43.5832 18.1811C43.5908 17.8779 43.5983 17.5331 43.6059 17.1465C43.6135 16.76 43.6173 16.2749 43.6173 15.6914C43.6173 15.1078 43.6135 14.528 43.6059 13.952C43.5983 13.3684 43.5832 12.7697 43.5604 12.1558L46.0729 11.9057C46.3078 12.8985 46.6261 13.9861 47.0278 15.1684C47.4371 16.3507 47.9487 17.624 48.5625 18.9882C48.5777 18.6244 48.5891 18.1697 48.5967 17.624C48.6042 17.0783 48.608 16.4341 48.608 15.6914C48.608 15.1078 48.5929 14.528 48.5625 13.952C48.5398 13.3684 48.5171 12.7697 48.4943 12.1558L50.0632 12.0421Z" fill="white"/>
</svg>
